<svg width="400" height="400" viewBox="0 0 400 400" fill="none" xmlns="http://www.w3.org/2000/svg">
<path d="M196.291 31.7685C198.658 30.7438 201.342 30.7438 203.709 31.7685L389.606 112.264C398.902 116.29 396.028 130.163 385.897 130.163H14.1027C3.97252 130.163 1.0979 116.29 10.394 112.264L196.291 31.7685Z" fill="#616060"/>
<path d="M169.333 159.496C169.333 154.341 173.512 150.163 178.667 150.163H220C225.155 150.163 229.333 154.341 229.333 159.496V307.496C229.333 312.651 225.155 316.829 220 316.829H178.667C173.512 316.829 169.333 312.651 169.333 307.496V159.496Z" fill="#616060"/>
<path d="M56 159.496C56 154.341 60.1787 150.163 65.3333 150.163H106.667C111.821 150.163 116 154.341 116 159.496V307.496C116 312.651 111.821 316.829 106.667 316.829H65.3333C60.1787 316.829 56 312.651 56 307.496V159.496Z" fill="#616060"/>
<path d="M282.667 159.496C282.667 154.341 286.845 150.163 292 150.163H333.333C338.488 150.163 342.667 154.341 342.667 159.496V307.496C342.667 312.651 338.488 316.829 333.333 316.829H292C286.845 316.829 282.667 312.651 282.667 307.496V159.496Z" fill="#616060"/>
<path d="M0 344.829C0 339.675 4.17868 335.496 9.33333 335.496H390.667C395.821 335.496 400 339.675 400 344.829V359.496C400 364.651 395.821 368.829 390.667 368.829H9.33332C4.17867 368.829 0 364.651 0 359.496V344.829Z" fill="#616060"/>
</svg>
