<svg width="400" height="400" viewBox="0 0 400 400" fill="none" xmlns="http://www.w3.org/2000/svg">
<path d="M209.547 86.125C226.637 86.2227 242.701 89.0059 257.74 94.4746V126.115H243.238C240.602 117.229 236.549 110.588 231.08 106.193C225.611 101.701 218.434 99.3086 209.547 99.0156V169.475C223.219 176.018 233.473 181.877 240.309 187.053C247.145 192.229 252.369 197.99 255.982 204.338C259.596 210.686 261.402 218.156 261.402 226.75C261.402 242.668 256.959 254.973 248.072 263.664C239.186 272.258 226.051 277.238 208.668 278.605V305.852H193.434V278.898C184.742 278.703 175.465 277.678 165.602 275.822C155.836 273.967 147.438 271.721 140.406 269.084V236.857H155.055C157.398 246.916 161.549 254.289 167.506 258.977C173.561 263.566 182.203 266.057 193.434 266.447V190.568L189.771 188.811C176.979 182.658 167.506 177.287 161.354 172.697C155.201 168.01 150.465 162.785 147.145 157.023C143.824 151.262 142.164 144.523 142.164 136.809C142.164 129.387 143.531 122.746 146.266 116.887C149 111.027 152.711 105.998 157.398 101.799C162.184 97.5996 167.75 94.2793 174.098 91.8379C180.445 89.2988 187.184 87.6875 194.312 87.0039V59.0254H209.547V86.125ZM194.312 163.615V99.4551C185.914 100.529 179.127 103.752 173.951 109.123C168.873 114.396 166.334 120.988 166.334 128.898C166.334 136.809 168.482 143.4 172.779 148.674C177.174 153.85 184.352 158.83 194.312 163.615ZM208.668 196.281V266.008C217.75 265.031 224.732 261.76 229.615 256.193C234.498 250.529 236.939 242.961 236.939 233.488C236.939 225.09 234.693 218.01 230.201 212.248C225.709 206.486 218.531 201.164 208.668 196.281Z" fill="#D9D9D9"/>
</svg>
